<?xml version="1.0" encoding="UTF-8" standalone="no"?>
<!-- Created with Inkscape (http://www.inkscape.org/) -->

<svg
   xmlns:dc="http://purl.org/dc/elements/1.1/"
   xmlns:cc="http://creativecommons.org/ns#"
   xmlns:rdf="http://www.w3.org/1999/02/22-rdf-syntax-ns#"
   xmlns:svg="http://www.w3.org/2000/svg"
   xmlns="http://www.w3.org/2000/svg"
   xmlns:sodipodi="http://sodipodi.sourceforge.net/DTD/sodipodi-0.dtd"
   xmlns:inkscape="http://www.inkscape.org/namespaces/inkscape"
   width="112mm"
   height="17mm"
   viewBox="0 0 112 17"
   version="1.1"
   id="svg1593"
   inkscape:version="0.92.4 (5da689c313, 2019-01-14)"
   sodipodi:docname="logo.svg">
  <defs
     id="defs1587" />
  <sodipodi:namedview
     id="base"
     pagecolor="#ffffff"
     bordercolor="#666666"
     borderopacity="1.0"
     inkscape:pageopacity="0.0"
     inkscape:pageshadow="2"
     inkscape:zoom="1.4"
     inkscape:cx="202.06616"
     inkscape:cy="154.60715"
     inkscape:document-units="mm"
     inkscape:current-layer="layer1"
     showgrid="false"
     units="mm"
     height="209mm"
     inkscape:window-width="1920"
     inkscape:window-height="986"
     inkscape:window-x="-11"
     inkscape:window-y="-11"
     inkscape:window-maximized="1" />
  <metadata
     id="metadata1590">
    <rdf:RDF>
      <cc:Work
         rdf:about="">
        <dc:format>image/svg+xml</dc:format>
        <dc:type
           rdf:resource="http://purl.org/dc/dcmitype/StillImage" />
        <dc:title></dc:title>
      </cc:Work>
    </rdf:RDF>
  </metadata>
  <g
     inkscape:label="Calque 1"
     inkscape:groupmode="layer"
     id="layer1"
     transform="translate(0,-280)">
    <g
       aria-label="OBM Open Building Management"
       transform="scale(0.96306937,1.0383468)"
       style="font-style:normal;font-variant:normal;font-weight:400;font-size:6.01436329px;line-height:125%;font-family:'Liberation Sans';text-align:start;letter-spacing:0px;word-spacing:0px;text-anchor:start;fill:#000000;fill-opacity:1;stroke:none;stroke-width:0.22589155"
       id="text6509">
      <path
         d="m 6.2847674,284.68442 q -1.6199555,0 -2.7855332,-1.14582 -1.1655777,-1.16558 -1.1655777,-2.78554 0,0 0,-0.77046 0,-0.79023 0,-1.71874 0,-0.84949 0,-1.58044 0,-0.73096 0,-0.86925 0,-1.63971 1.1655777,-2.78553 1.1655777,-1.16558 2.7855332,-1.16558 l 6.9144436,-0.0198 q 1.639711,0.0198 2.785534,1.18533 1.165577,1.14582 1.165577,2.78553 0,0.13829 0,0.86925 0,0.73095 0,1.58044 0,0.92851 0,1.71874 0,0.77046 0,0.77046 0,1.61996 -1.165577,2.78554 -1.145823,1.14582 -2.785534,1.14582 H 6.2847674 Z m 6.9144436,-2.96334 q 0.414867,0 0.691445,-0.27657 0.296333,-0.29634 0.296333,-0.69145 v -4.95864 q 0,-0.33585 -0.256822,-0.59267 -0.256822,-0.27658 -0.553156,-0.3556 -0.03951,0 -0.09878,0 -0.03951,-0.0198 -0.07902,-0.0198 l -6.9144436,-0.0198 q -0.079022,0.0198 -0.1975556,0.079 -0.1185333,0.0395 -0.2370666,0.11854 -0.2173111,0.11853 -0.3951111,0.33584 -0.1580444,0.21731 -0.1580444,0.47413 v 4.91914 q 0,0.39511 0.2765777,0.67169 0.2765778,0.27657 0.6124222,0.33584 0.019756,0 0.039511,0 0.039511,0 0.059267,0 l 6.9144436,-0.0198 z"
         style="font-style:normal;font-variant:normal;font-weight:normal;font-stretch:normal;font-size:19.7555542px;line-height:84.1999948%;font-family:'Terminator Two';-inkscape-font-specification:'Terminator Two';fill:#000000;stroke-width:0.22589155"
         id="path2197" />
      <path
         d="m 18.153534,284.68442 v -12.84111 q 0,0.0198 1.521178,0.0198 1.540933,0 3.3782,0 1.580444,0 2.963333,0 1.402644,0 1.797755,0 1.639711,0 2.785533,1.16558 1.165578,1.14582 1.165578,2.78553 0,0.67169 -0.217311,1.28411 -0.197556,0.59267 -0.592667,1.10632 0.454378,0.51364 0.730956,1.16557 0.296333,0.65194 0.296333,1.38289 0,1.61996 -1.165578,2.78554 -1.145822,1.14582 -2.785533,1.14582 -0.395111,0 -1.817511,0 -1.4224,0 -3.062111,0 -1.876777,0 -3.437466,0 -1.560689,0 -1.560689,0 z m 10.865555,-3.95111 q 0,-0.39511 -0.296333,-0.67169 -0.276578,-0.29634 -0.691445,-0.29634 l -6.934199,-0.0198 0.01975,1.97555 h 6.914444 q 0.414867,0.0198 0.691445,-0.27657 0.296333,-0.29634 0.296333,-0.69145 z m -1.106311,-5.92667 h -6.795911 v 1.97556 h 6.795911 q 0.395111,0.0197 0.691444,-0.27658 0.296334,-0.29634 0.296334,-0.69145 0,-0.41486 -0.296334,-0.69144 -0.296333,-0.29633 -0.691444,-0.29633 z"
         style="font-style:normal;font-variant:normal;font-weight:normal;font-stretch:normal;font-size:19.7555542px;line-height:84.1999948%;font-family:'Terminator Two';-inkscape-font-specification:'Terminator Two';fill:#000000;stroke-width:0.22589155"
         id="path2199" />
      <path
         d="m 41.860199,284.68442 h -2.963333 v -9.87778 h -2.963333 v 9.87778 H 32.9702 v -12.84111 h 10.865555 q 1.639711,0.0198 2.785533,1.18533 1.165577,1.14582 1.165577,2.78553 v 8.87025 h -2.963333 v -8.89 q 0,-0.39511 -0.296333,-0.67169 -0.276578,-0.29633 -0.691444,-0.29633 l -1.975556,-0.0198 v 9.87778 z"
         style="font-style:normal;font-variant:normal;font-weight:normal;font-stretch:normal;font-size:19.7555542px;line-height:84.1999948%;font-family:'Terminator Two';-inkscape-font-specification:'Terminator Two';fill:#000000;stroke-width:0.22589155"
         id="path2201" />
      <path
         d="m 54.352184,282.96979 q 0,0.53296 -0.204983,0.93328 -0.202572,0.40032 -0.5836,0.61495 -0.381027,0.21463 -0.899514,0.21463 -0.52331,0 -0.904338,-0.21222 -0.378616,-0.21222 -0.578776,-0.61254 -0.20016,-0.40273 -0.20016,-0.9381 0,-0.81511 0.44614,-1.2733 0.44614,-0.46061 1.241957,-0.46061 0.518487,0 0.899515,0.20739 0.381027,0.20498 0.581187,0.59807 0.202572,0.39309 0.202572,0.92845 z m -0.470256,0 q 0,-0.63424 -0.318327,-0.99597 -0.315915,-0.36174 -0.894691,-0.36174 -0.583599,0 -0.901926,0.35691 -0.318327,0.35692 -0.318327,1.0008 0,0.63907 0.320739,1.01527 0.32315,0.3738 0.894691,0.3738 0.588422,0 0.901926,-0.36174 0.315915,-0.36415 0.315915,-1.02733 z"
         style="font-style:normal;font-variant:normal;font-weight:normal;font-stretch:normal;font-size:4.93888903px;font-family:'Liberation Sans';-inkscape-font-specification:'Liberation Sans, Normal';font-variant-ligatures:normal;font-variant-caps:normal;font-variant-numeric:normal;font-feature-settings:normal;text-align:start;writing-mode:lr-tb;text-anchor:start"
         id="path2203" />
      <path
         d="m 57.125486,283.3677 q 0,1.36495 -0.959804,1.36495 -0.602892,0 -0.810287,-0.45338 h -0.01206 q 0.0096,0.0193 0.0096,0.40997 v 1.02009 h -0.434082 v -3.10127 q 0,-0.40273 -0.01447,-0.53296 h 0.419613 q 0.0024,0.01 0.0072,0.0699 0.0048,0.0579 0.0096,0.18087 0.0072,0.12299 0.0072,0.1688 h 0.0096 q 0.115755,-0.24115 0.306269,-0.35208 0.190514,-0.11335 0.501606,-0.11335 0.482313,0 0.721058,0.32315 0.238746,0.32315 0.238746,1.01527 z m -0.455787,0.01 q 0,-0.54502 -0.147105,-0.77894 -0.147106,-0.23392 -0.467844,-0.23392 -0.258038,0 -0.405143,0.10852 -0.144694,0.10852 -0.221865,0.34003 -0.07476,0.2291 -0.07476,0.59807 0,0.51366 0.163986,0.75723 0.163987,0.24357 0.532957,0.24357 0.32315,0 0.470255,-0.23633 0.149517,-0.23875 0.149517,-0.79823 z"
         style="font-style:normal;font-variant:normal;font-weight:normal;font-stretch:normal;font-size:4.93888903px;font-family:'Liberation Sans';-inkscape-font-specification:'Liberation Sans, Normal';font-variant-ligatures:normal;font-variant-caps:normal;font-variant-numeric:normal;font-feature-settings:normal;text-align:start;writing-mode:lr-tb;text-anchor:start"
         id="path2205" />
      <path
         d="m 58.000886,283.4714 q 0,0.44855 0.18569,0.69212 0.185691,0.24357 0.542603,0.24357 0.282153,0 0.450963,-0.11335 0.171221,-0.11334 0.23151,-0.28697 l 0.381028,0.10852 q -0.233922,0.61736 -1.063501,0.61736 -0.578776,0 -0.882634,-0.34486 -0.301446,-0.34485 -0.301446,-1.02491 0,-0.6463 0.301446,-0.99115 0.303858,-0.34486 0.865753,-0.34486 1.150317,0 1.150317,1.38665 v 0.0579 z m 1.413178,-0.3328 q -0.03617,-0.41237 -0.209807,-0.60048 -0.173632,-0.19051 -0.499194,-0.19051 -0.315915,0 -0.501606,0.21222 -0.183279,0.2098 -0.197748,0.57877 z"
         style="font-style:normal;font-variant:normal;font-weight:normal;font-stretch:normal;font-size:4.93888903px;font-family:'Liberation Sans';-inkscape-font-specification:'Liberation Sans, Normal';font-variant-ligatures:normal;font-variant-caps:normal;font-variant-numeric:normal;font-feature-settings:normal;text-align:start;writing-mode:lr-tb;text-anchor:start"
         id="path2207" />
      <path
         d="m 62.074023,284.68442 v -1.65434 q 0,-0.25803 -0.05064,-0.40032 -0.05064,-0.14228 -0.161575,-0.20498 -0.110932,-0.0627 -0.325561,-0.0627 -0.313504,0 -0.494371,0.21463 -0.180868,0.21463 -0.180868,0.59566 v 1.51205 h -0.434082 v -2.05225 q 0,-0.45578 -0.01447,-0.55707 h 0.409966 q 0.0024,0.0121 0.0048,0.0651 0.0024,0.0531 0.0048,0.12299 0.0048,0.0675 0.0096,0.25804 h 0.0072 q 0.149517,-0.27009 0.344854,-0.38103 0.197749,-0.11334 0.489548,-0.11334 0.429259,0 0.627008,0.21463 0.20016,0.21222 0.20016,0.70418 v 1.73874 z"
         style="font-style:normal;font-variant:normal;font-weight:normal;font-stretch:normal;font-size:4.93888903px;font-family:'Liberation Sans';-inkscape-font-specification:'Liberation Sans, Normal';font-variant-ligatures:normal;font-variant-caps:normal;font-variant-numeric:normal;font-feature-settings:normal;text-align:start;writing-mode:lr-tb;text-anchor:start"
         id="path2209" />
      <path
         d="m 67.237185,283.72703 q 0,0.45337 -0.330384,0.70658 -0.330385,0.25081 -0.918807,0.25081 h -1.379417 v -3.3979 H 65.8433 q 1.196137,0 1.196137,0.82476 0,0.30144 -0.16881,0.50642 -0.168809,0.20499 -0.47749,0.27492 0.405143,0.0482 0.624596,0.27251 0.219452,0.22186 0.219452,0.5619 z m -0.660769,-1.56029 q 0,-0.27492 -0.188102,-0.39308 -0.188102,-0.11817 -0.545014,-0.11817 h -0.774113 v 1.07556 H 65.8433 q 0.368969,0 0.549837,-0.13746 0.183279,-0.13987 0.183279,-0.42685 z m 0.195337,1.52411 q 0,-0.60048 -0.844048,-0.60048 h -0.858518 v 1.22508 h 0.894691 q 0.422024,0 0.61495,-0.15675 0.192925,-0.15676 0.192925,-0.46785 z"
         style="font-style:normal;font-variant:normal;font-weight:normal;font-stretch:normal;font-size:4.93888903px;font-family:'Liberation Sans';-inkscape-font-specification:'Liberation Sans, Normal';font-variant-ligatures:normal;font-variant-caps:normal;font-variant-numeric:normal;font-feature-settings:normal;text-align:start;writing-mode:lr-tb;text-anchor:start"
         id="path2211" />
      <path
         d="m 68.259689,282.0751 v 1.65434 q 0,0.25803 0.05064,0.40032 0.05064,0.14228 0.161575,0.20498 0.110932,0.0627 0.325561,0.0627 0.313504,0 0.494372,-0.21463 0.180867,-0.21463 0.180867,-0.59566 v -1.51205 h 0.434082 v 2.05225 q 0,0.45578 0.01447,0.55707 h -0.409967 q -0.0024,-0.0121 -0.0048,-0.0651 -0.0024,-0.0531 -0.0072,-0.12058 -0.0024,-0.0699 -0.0072,-0.26045 h -0.0072 q -0.149517,0.27009 -0.347266,0.38344 -0.195337,0.11093 -0.487136,0.11093 -0.429259,0 -0.629419,-0.21222 -0.197749,-0.21463 -0.197749,-0.70659 v -1.73874 z"
         style="font-style:normal;font-variant:normal;font-weight:normal;font-stretch:normal;font-size:4.93888903px;font-family:'Liberation Sans';-inkscape-font-specification:'Liberation Sans, Normal';font-variant-ligatures:normal;font-variant-caps:normal;font-variant-numeric:normal;font-feature-settings:normal;text-align:start;writing-mode:lr-tb;text-anchor:start"
         id="path2213" />
      <path
         d="m 70.582033,281.52044 v -0.41479 h 0.434082 v 0.41479 z m 0,3.16398 v -2.60932 h 0.434082 v 2.60932 z"
         style="font-style:normal;font-variant:normal;font-weight:normal;font-stretch:normal;font-size:4.93888903px;font-family:'Liberation Sans';-inkscape-font-specification:'Liberation Sans, Normal';font-variant-ligatures:normal;font-variant-caps:normal;font-variant-numeric:normal;font-feature-settings:normal;text-align:start;writing-mode:lr-tb;text-anchor:start"
         id="path2215" />
      <path
         d="m 71.684115,284.68442 v -3.57877 h 0.434082 v 3.57877 z"
         style="font-style:normal;font-variant:normal;font-weight:normal;font-stretch:normal;font-size:4.93888903px;font-family:'Liberation Sans';-inkscape-font-specification:'Liberation Sans, Normal';font-variant-ligatures:normal;font-variant-caps:normal;font-variant-numeric:normal;font-feature-settings:normal;text-align:start;writing-mode:lr-tb;text-anchor:start"
         id="path2217" />
      <path
         d="m 74.430893,284.26481 q -0.120578,0.2508 -0.320738,0.35932 -0.197749,0.10852 -0.49196,0.10852 -0.494371,0 -0.728293,-0.3328 -0.231511,-0.33279 -0.231511,-1.00803 0,-1.36495 0.959804,-1.36495 0.296623,0 0.494371,0.10852 0.197749,0.10852 0.318327,0.34486 h 0.0048 l -0.0048,-0.2918 v -1.0828 h 0.434082 v 3.04099 q 0,0.40755 0.01447,0.53778 h -0.41479 q -0.0072,-0.0386 -0.01688,-0.17846 -0.0072,-0.13987 -0.0072,-0.24115 z m -1.316715,-0.88746 q 0,0.54742 0.144694,0.78376 0.144694,0.23633 0.470255,0.23633 0.36897,0 0.535368,-0.25562 0.166398,-0.25563 0.166398,-0.79341 0,-0.51849 -0.166398,-0.75964 -0.166398,-0.24116 -0.530545,-0.24116 -0.327973,0 -0.475078,0.24357 -0.144694,0.24115 -0.144694,0.78617 z"
         style="font-style:normal;font-variant:normal;font-weight:normal;font-stretch:normal;font-size:4.93888903px;font-family:'Liberation Sans';-inkscape-font-specification:'Liberation Sans, Normal';font-variant-ligatures:normal;font-variant-caps:normal;font-variant-numeric:normal;font-feature-settings:normal;text-align:start;writing-mode:lr-tb;text-anchor:start"
         id="path2219" />
      <path
         d="m 75.530565,281.52044 v -0.41479 h 0.434082 v 0.41479 z m 0,3.16398 v -2.60932 h 0.434082 v 2.60932 z"
         style="font-style:normal;font-variant:normal;font-weight:normal;font-stretch:normal;font-size:4.93888903px;font-family:'Liberation Sans';-inkscape-font-specification:'Liberation Sans, Normal';font-variant-ligatures:normal;font-variant-caps:normal;font-variant-numeric:normal;font-feature-settings:normal;text-align:start;writing-mode:lr-tb;text-anchor:start"
         id="path2221" />
      <path
         d="m 78.289401,284.68442 v -1.65434 q 0,-0.25803 -0.05064,-0.40032 -0.05064,-0.14228 -0.161575,-0.20498 -0.110932,-0.0627 -0.325561,-0.0627 -0.313504,0 -0.494372,0.21463 -0.180867,0.21463 -0.180867,0.59566 v 1.51205 h -0.434082 v -2.05225 q 0,-0.45578 -0.01447,-0.55707 h 0.409967 q 0.0024,0.0121 0.0048,0.0651 0.0024,0.0531 0.0048,0.12299 0.0048,0.0675 0.0096,0.25804 h 0.0072 q 0.149517,-0.27009 0.344854,-0.38103 0.197749,-0.11334 0.489548,-0.11334 0.429259,0 0.627008,0.21463 0.20016,0.21222 0.20016,0.70418 v 1.73874 z"
         style="font-style:normal;font-variant:normal;font-weight:normal;font-stretch:normal;font-size:4.93888903px;font-family:'Liberation Sans';-inkscape-font-specification:'Liberation Sans, Normal';font-variant-ligatures:normal;font-variant-caps:normal;font-variant-numeric:normal;font-feature-settings:normal;text-align:start;writing-mode:lr-tb;text-anchor:start"
         id="path2223" />
      <path
         d="m 80.370581,285.70933 q -0.426848,0 -0.680062,-0.16881 -0.253215,-0.16639 -0.325562,-0.47507 l 0.436494,-0.0627 q 0.04341,0.18087 0.190514,0.27733 0.149517,0.0989 0.390673,0.0989 0.648712,0 0.648712,-0.75964 v -0.41962 h -0.0048 q -0.12299,0.25081 -0.33762,0.37862 -0.214629,0.1254 -0.501605,0.1254 -0.479902,0 -0.70659,-0.31833 -0.224275,-0.31832 -0.224275,-1.0008 0,-0.69212 0.241156,-1.02009 0.243569,-0.33038 0.73794,-0.33038 0.27733,0 0.479902,0.12781 0.204983,0.1254 0.315915,0.35932 h 0.0048 q 0,-0.0723 0.0096,-0.2508 0.0096,-0.17846 0.01929,-0.19534 h 0.412378 q -0.01447,0.13023 -0.01447,0.54019 v 1.99437 q 0,1.09967 -1.092439,1.09967 z m 0.660769,-2.32957 q 0,-0.31833 -0.08682,-0.54743 -0.08682,-0.23151 -0.24598,-0.35208 -0.156752,-0.12299 -0.356912,-0.12299 -0.332796,0 -0.484725,0.24115 -0.151929,0.24116 -0.151929,0.78135 0,0.53537 0.142283,0.76929 0.142282,0.23392 0.487136,0.23392 0.204983,0 0.364147,-0.12058 0.159163,-0.12057 0.24598,-0.34485 0.08682,-0.22669 0.08682,-0.53778 z"
         style="font-style:normal;font-variant:normal;font-weight:normal;font-stretch:normal;font-size:4.93888903px;font-family:'Liberation Sans';-inkscape-font-specification:'Liberation Sans, Normal';font-variant-ligatures:normal;font-variant-caps:normal;font-variant-numeric:normal;font-feature-settings:normal;text-align:start;writing-mode:lr-tb;text-anchor:start"
         id="path2225" />
      <path
         d="m 86.4622,284.68442 v -2.26688 q 0,-0.3762 0.0217,-0.72347 -0.118167,0.43168 -0.212218,0.67524 l -0.87781,2.31511 h -0.32315 l -0.889868,-2.31511 -0.135048,-0.40996 -0.07958,-0.26528 0.0072,0.26769 0.0096,0.45578 v 2.26688 h -0.409966 v -3.3979 h 0.605303 l 0.904338,2.3561 q 0.04823,0.14228 0.09164,0.30627 0.04582,0.16157 0.06029,0.23392 0.01929,-0.0965 0.07958,-0.2918 0.0627,-0.19775 0.0844,-0.24839 l 0.887457,-2.3561 h 0.590833 v 3.3979 z"
         style="font-style:normal;font-variant:normal;font-weight:normal;font-stretch:normal;font-size:4.93888903px;font-family:'Liberation Sans';-inkscape-font-specification:'Liberation Sans, Normal';font-variant-ligatures:normal;font-variant-caps:normal;font-variant-numeric:normal;font-feature-settings:normal;text-align:start;writing-mode:lr-tb;text-anchor:start"
         id="path2227" />
      <path
         d="m 88.285346,284.73265 q -0.393086,0 -0.590834,-0.2074 -0.197749,-0.20739 -0.197749,-0.56913 0,-0.40514 0.265273,-0.62218 0.267684,-0.21704 0.860929,-0.23151 l 0.586011,-0.01 v -0.14228 q 0,-0.31833 -0.135048,-0.45579 -0.135048,-0.13745 -0.424436,-0.13745 -0.291799,0 -0.424435,0.0989 -0.132637,0.0989 -0.159164,0.31592 l -0.453374,-0.041 q 0.110932,-0.70418 1.04662,-0.70418 0.491959,0 0.740351,0.22669 0.248391,0.22427 0.248391,0.65112 v 1.12379 q 0,0.19293 0.05064,0.2918 0.05064,0.0965 0.192925,0.0965 0.0627,0 0.142283,-0.0169 v 0.2701 q -0.163987,0.0386 -0.335208,0.0386 -0.241157,0 -0.352089,-0.1254 -0.10852,-0.12781 -0.12299,-0.39791 h -0.01447 q -0.166398,0.29904 -0.388262,0.42444 -0.219453,0.12299 -0.535368,0.12299 z m 0.09887,-0.32556 q 0.238745,0 0.424436,-0.10852 0.18569,-0.10852 0.291799,-0.29663 0.108521,-0.19051 0.108521,-0.39067 v -0.21463 l -0.475079,0.01 q -0.306269,0.005 -0.465432,0.0627 -0.156752,0.0579 -0.241157,0.17845 -0.08441,0.12058 -0.08441,0.31592 0,0.21222 0.113344,0.32797 0.115755,0.11576 0.327973,0.11576 z"
         style="font-style:normal;font-variant:normal;font-weight:normal;font-stretch:normal;font-size:4.93888903px;font-family:'Liberation Sans';-inkscape-font-specification:'Liberation Sans, Normal';font-variant-ligatures:normal;font-variant-caps:normal;font-variant-numeric:normal;font-feature-settings:normal;text-align:start;writing-mode:lr-tb;text-anchor:start"
         id="path2229" />
      <path
         d="m 92.025683,284.68442 v -1.65434 q 0,-0.25803 -0.05064,-0.40032 -0.05064,-0.14228 -0.161575,-0.20498 -0.110932,-0.0627 -0.325561,-0.0627 -0.313504,0 -0.494371,0.21463 -0.180868,0.21463 -0.180868,0.59566 v 1.51205 h -0.434082 v -2.05225 q 0,-0.45578 -0.01447,-0.55707 h 0.409966 q 0.0024,0.0121 0.0048,0.0651 0.0024,0.0531 0.0048,0.12299 0.0048,0.0675 0.0096,0.25804 h 0.0072 q 0.149518,-0.27009 0.344854,-0.38103 0.197749,-0.11334 0.489549,-0.11334 0.429258,0 0.627007,0.21463 0.20016,0.21222 0.20016,0.70418 v 1.73874 z"
         style="font-style:normal;font-variant:normal;font-weight:normal;font-stretch:normal;font-size:4.93888903px;font-family:'Liberation Sans';-inkscape-font-specification:'Liberation Sans, Normal';font-variant-ligatures:normal;font-variant-caps:normal;font-variant-numeric:normal;font-feature-settings:normal;text-align:start;writing-mode:lr-tb;text-anchor:start"
         id="path2231" />
      <path
         d="m 93.783713,284.73265 q -0.393085,0 -0.590834,-0.2074 -0.197748,-0.20739 -0.197748,-0.56913 0,-0.40514 0.265272,-0.62218 0.267684,-0.21704 0.860929,-0.23151 l 0.586011,-0.01 v -0.14228 q 0,-0.31833 -0.135048,-0.45579 -0.135047,-0.13745 -0.424435,-0.13745 -0.2918,0 -0.424436,0.0989 -0.132636,0.0989 -0.159164,0.31592 l -0.453374,-0.041 q 0.110932,-0.70418 1.04662,-0.70418 0.49196,0 0.740351,0.22669 0.248391,0.22427 0.248391,0.65112 v 1.12379 q 0,0.19293 0.05064,0.2918 0.05064,0.0965 0.192926,0.0965 0.0627,0 0.142282,-0.0169 v 0.2701 q -0.163987,0.0386 -0.335208,0.0386 -0.241156,0 -0.352089,-0.1254 -0.10852,-0.12781 -0.122989,-0.39791 h -0.01447 q -0.166398,0.29904 -0.388262,0.42444 -0.219453,0.12299 -0.535368,0.12299 z m 0.09887,-0.32556 q 0.238745,0 0.424436,-0.10852 0.185691,-0.10852 0.2918,-0.29663 0.10852,-0.19051 0.10852,-0.39067 v -0.21463 l -0.475079,0.01 q -0.306269,0.005 -0.465432,0.0627 -0.156752,0.0579 -0.241157,0.17845 -0.0844,0.12058 -0.0844,0.31592 0,0.21222 0.113343,0.32797 0.115755,0.11576 0.327973,0.11576 z"
         style="font-style:normal;font-variant:normal;font-weight:normal;font-stretch:normal;font-size:4.93888903px;font-family:'Liberation Sans';-inkscape-font-specification:'Liberation Sans, Normal';font-variant-ligatures:normal;font-variant-caps:normal;font-variant-numeric:normal;font-feature-settings:normal;text-align:start;writing-mode:lr-tb;text-anchor:start"
         id="path2233" />
      <path
         d="m 96.856054,285.70933 q -0.426847,0 -0.680062,-0.16881 -0.253214,-0.16639 -0.325561,-0.47507 l 0.436493,-0.0627 q 0.04341,0.18087 0.190514,0.27733 0.149517,0.0989 0.390674,0.0989 0.648712,0 0.648712,-0.75964 v -0.41962 H 97.512 q -0.122989,0.25081 -0.337619,0.37862 -0.214629,0.1254 -0.501606,0.1254 -0.479902,0 -0.706589,-0.31833 -0.224276,-0.31832 -0.224276,-1.0008 0,-0.69212 0.241157,-1.02009 0.243568,-0.33038 0.73794,-0.33038 0.27733,0 0.479901,0.12781 0.204984,0.1254 0.315916,0.35932 h 0.0048 q 0,-0.0723 0.0096,-0.2508 0.0096,-0.17846 0.01929,-0.19534 h 0.412377 q -0.01447,0.13023 -0.01447,0.54019 v 1.99437 q 0,1.09967 -1.09244,1.09967 z m 0.66077,-2.32957 q 0,-0.31833 -0.08682,-0.54743 -0.08682,-0.23151 -0.24598,-0.35208 -0.156751,-0.12299 -0.356912,-0.12299 -0.332796,0 -0.484724,0.24115 -0.151929,0.24116 -0.151929,0.78135 0,0.53537 0.142282,0.76929 0.142283,0.23392 0.487137,0.23392 0.204983,0 0.364146,-0.12058 0.159164,-0.12057 0.24598,-0.34485 0.08682,-0.22669 0.08682,-0.53778 z"
         style="font-style:normal;font-variant:normal;font-weight:normal;font-stretch:normal;font-size:4.93888903px;font-family:'Liberation Sans';-inkscape-font-specification:'Liberation Sans, Normal';font-variant-ligatures:normal;font-variant-caps:normal;font-variant-numeric:normal;font-feature-settings:normal;text-align:start;writing-mode:lr-tb;text-anchor:start"
         id="path2235" />
      <path
         d="m 98.949292,283.4714 q 0,0.44855 0.18569,0.69212 0.185691,0.24357 0.542603,0.24357 0.282153,0 0.450965,-0.11335 0.17122,-0.11334 0.23151,-0.28697 l 0.38103,0.10852 q -0.23393,0.61736 -1.063505,0.61736 -0.578776,0 -0.882634,-0.34486 -0.301445,-0.34485 -0.301445,-1.02491 0,-0.6463 0.301445,-0.99115 0.303858,-0.34486 0.865753,-0.34486 1.150316,0 1.150316,1.38665 v 0.0579 z m 1.413178,-0.3328 q -0.0362,-0.41237 -0.20981,-0.60048 -0.173629,-0.19051 -0.499191,-0.19051 -0.315915,0 -0.501606,0.21222 -0.183279,0.2098 -0.197748,0.57877 z"
         style="font-style:normal;font-variant:normal;font-weight:normal;font-stretch:normal;font-size:4.93888903px;font-family:'Liberation Sans';-inkscape-font-specification:'Liberation Sans, Normal';font-variant-ligatures:normal;font-variant-caps:normal;font-variant-numeric:normal;font-feature-settings:normal;text-align:start;writing-mode:lr-tb;text-anchor:start"
         id="path2237" />
      <path
         d="m 102.88497,284.68442 v -1.65434 q 0,-0.37861 -0.1037,-0.52331 -0.1037,-0.14469 -0.37379,-0.14469 -0.27733,0 -0.43891,0.21222 -0.16157,0.21221 -0.16157,0.59807 v 1.51205 h -0.43167 v -2.05225 q 0,-0.45578 -0.0145,-0.55707 h 0.40996 q 0.002,0.0121 0.005,0.0651 0.002,0.0531 0.005,0.12299 0.005,0.0675 0.01,0.25804 h 0.007 q 0.13987,-0.27733 0.32074,-0.38585 0.18087,-0.10852 0.44131,-0.10852 0.29663,0 0.46785,0.11817 0.17363,0.11816 0.24116,0.3762 h 0.007 q 0.13505,-0.26286 0.32556,-0.37861 0.19293,-0.11576 0.46543,-0.11576 0.3955,0 0.57396,0.21463 0.18086,0.21463 0.18086,0.70418 v 1.73874 h -0.42925 v -1.65434 q 0,-0.37861 -0.1037,-0.52331 -0.1037,-0.14469 -0.37379,-0.14469 -0.28457,0 -0.44373,0.21222 -0.15675,0.2098 -0.15675,0.59807 v 1.51205 z"
         style="font-style:normal;font-variant:normal;font-weight:normal;font-stretch:normal;font-size:4.93888903px;font-family:'Liberation Sans';-inkscape-font-specification:'Liberation Sans, Normal';font-variant-ligatures:normal;font-variant-caps:normal;font-variant-numeric:normal;font-feature-settings:normal;text-align:start;writing-mode:lr-tb;text-anchor:start"
         id="path2239" />
      <path
         d="m 105.81743,283.4714 q 0,0.44855 0.18569,0.69212 0.18569,0.24357 0.54261,0.24357 0.28215,0 0.45096,-0.11335 0.17122,-0.11334 0.23151,-0.28697 l 0.38103,0.10852 q -0.23392,0.61736 -1.0635,0.61736 -0.57878,0 -0.88264,-0.34486 -0.30144,-0.34485 -0.30144,-1.02491 0,-0.6463 0.30144,-0.99115 0.30386,-0.34486 0.86576,-0.34486 1.15031,0 1.15031,1.38665 v 0.0579 z m 1.41318,-0.3328 q -0.0362,-0.41237 -0.20981,-0.60048 -0.17363,-0.19051 -0.49919,-0.19051 -0.31591,0 -0.50161,0.21222 -0.18327,0.2098 -0.19774,0.57877 z"
         style="font-style:normal;font-variant:normal;font-weight:normal;font-stretch:normal;font-size:4.93888903px;font-family:'Liberation Sans';-inkscape-font-specification:'Liberation Sans, Normal';font-variant-ligatures:normal;font-variant-caps:normal;font-variant-numeric:normal;font-feature-settings:normal;text-align:start;writing-mode:lr-tb;text-anchor:start"
         id="path2241" />
      <path
         d="m 109.89057,284.68442 v -1.65434 q 0,-0.25803 -0.0506,-0.40032 -0.0506,-0.14228 -0.16157,-0.20498 -0.11093,-0.0627 -0.32556,-0.0627 -0.31351,0 -0.49437,0.21463 -0.18087,0.21463 -0.18087,0.59566 v 1.51205 h -0.43408 v -2.05225 q 0,-0.45578 -0.0145,-0.55707 h 0.40996 q 0.002,0.0121 0.005,0.0651 0.002,0.0531 0.005,0.12299 0.005,0.0675 0.01,0.25804 h 0.007 q 0.14952,-0.27009 0.34485,-0.38103 0.19775,-0.11334 0.48955,-0.11334 0.42926,0 0.62701,0.21463 0.20016,0.21222 0.20016,0.70418 v 1.73874 z"
         style="font-style:normal;font-variant:normal;font-weight:normal;font-stretch:normal;font-size:4.93888903px;font-family:'Liberation Sans';-inkscape-font-specification:'Liberation Sans, Normal';font-variant-ligatures:normal;font-variant-caps:normal;font-variant-numeric:normal;font-feature-settings:normal;text-align:start;writing-mode:lr-tb;text-anchor:start"
         id="path2243" />
      <path
         d="m 111.98622,284.66513 q -0.21463,0.0579 -0.4389,0.0579 -0.5209,0 -0.5209,-0.59083 v -1.74115 h -0.30145 v -0.31592 h 0.31833 l 0.12781,-0.5836 h 0.28939 v 0.5836 h 0.48232 v 0.31592 h -0.48232 v 1.6471 q 0,0.1881 0.0603,0.26527 0.0627,0.0748 0.21463,0.0748 0.0868,0 0.2508,-0.0338 z"
         style="font-style:normal;font-variant:normal;font-weight:normal;font-stretch:normal;font-size:4.93888903px;font-family:'Liberation Sans';-inkscape-font-specification:'Liberation Sans, Normal';font-variant-ligatures:normal;font-variant-caps:normal;font-variant-numeric:normal;font-feature-settings:normal;text-align:start;writing-mode:lr-tb;text-anchor:start"
         id="path2245" />
    </g>
  </g>
</svg>
