<?xml version="1.0" encoding="UTF-8" standalone="no"?>
<!-- Created with Inkscape (http://www.inkscape.org/) -->

<svg
   xmlns:dc="http://purl.org/dc/elements/1.1/"
   xmlns:cc="http://creativecommons.org/ns#"
   xmlns:rdf="http://www.w3.org/1999/02/22-rdf-syntax-ns#"
   xmlns:svg="http://www.w3.org/2000/svg"
   xmlns="http://www.w3.org/2000/svg"
   xmlns:sodipodi="http://sodipodi.sourceforge.net/DTD/sodipodi-0.dtd"
   xmlns:inkscape="http://www.inkscape.org/namespaces/inkscape"
   version="1.1"
   id="svg1104"
   width="864"
   height="690"
   viewBox="0 0 864 690"
   sodipodi:docname="temperature.svg"
   inkscape:version="0.92.4 (5da689c313, 2019-01-14)">
  <metadata
     id="metadata1110">
    <rdf:RDF>
      <cc:Work
         rdf:about="">
        <dc:format>image/svg+xml</dc:format>
        <dc:type
           rdf:resource="http://purl.org/dc/dcmitype/StillImage" />
        <dc:title></dc:title>
      </cc:Work>
    </rdf:RDF>
  </metadata>
  <defs
     id="defs1108">
    <inkscape:path-effect
       effect="powerstroke"
       id="path-effect1139"
       is_visible="true"
       offset_points="1,0.5"
       sort_points="true"
       interpolator_type="CubicBezierJohan"
       interpolator_beta="0.2"
       start_linecap_type="zerowidth"
       linejoin_type="extrp_arc"
       miter_limit="4"
       end_linecap_type="zerowidth" />
  </defs>
  <sodipodi:namedview
     pagecolor="#ffffff"
     bordercolor="#666666"
     borderopacity="1"
     objecttolerance="10"
     gridtolerance="10"
     guidetolerance="10"
     inkscape:pageopacity="0"
     inkscape:pageshadow="2"
     inkscape:window-width="1920"
     inkscape:window-height="986"
     id="namedview1106"
     showgrid="false"
     inkscape:zoom="1"
     inkscape:cx="418.51571"
     inkscape:cy="337.56986"
     inkscape:window-x="-11"
     inkscape:window-y="-11"
     inkscape:window-maximized="1"
     inkscape:current-layer="svg1104" />
  <path
     style="opacity:1;fill:#ffffff;fill-opacity:1;fill-rule:nonzero;stroke:#000000;stroke-width:7.55905512;stroke-linecap:butt;stroke-linejoin:round;stroke-miterlimit:4;stroke-dasharray:none;stroke-dashoffset:0;stroke-opacity:1;paint-order:stroke fill markers"
     d="M 502.23067,122.33924 V 374.98289 C 683.05945,476.23091 530.92997,726.89907 367.19047,645.77717 302.89118,613.9212 226.19095,505.54264 316.6009,409.93889 c 11.26077,-11.90767 25.11398,-23.61716 41.90648,-34.95594 -5e-5,0 -8e-5,-1e-5 -8e-5,-6e-5 V 122.33924 c 0.77499,-105.187388 142.80992,-103.897576 143.72328,-5e-5 5e-5,3e-5 9e-5,1e-5 9e-5,5e-5"
     id="rect1204-8"
     inkscape:connector-curvature="0"
     sodipodi:nodetypes="ccsscsccc" />
  <path
     style="opacity:1;fill:#e94949;fill-opacity:1;fill-rule:nonzero;stroke:#000000;stroke-width:5.41155386;stroke-linecap:butt;stroke-linejoin:round;stroke-miterlimit:4;stroke-dasharray:none;stroke-dashoffset:0;stroke-opacity:1;paint-order:stroke fill markers"
     d="m 460.57385,329.60552 v 114.02756 c 78.26094,45.69702 12.42078,158.83296 -58.44408,122.21961 -27.8281,-14.37779 -61.02321,-63.29311 -21.89466,-106.44266 4.87354,-5.37438 10.86908,-10.65931 18.1367,-15.77693 -2e-5,0 -2e-5,-1e-5 -2e-5,-2e-5 V 329.60552 c 0.33539,-47.47501 61.80673,-46.89287 62.20204,-2e-5 1e-5,10e-6 2e-5,0 2e-5,2e-5"
     id="rect1204"
     inkscape:connector-curvature="0"
     sodipodi:nodetypes="ccsscsccc" />
</svg>
