<svg id="Calque_1" data-name="Calque 1" xmlns="http://www.w3.org/2000/svg" viewBox="0 0 141.73 141.67"><defs><style>.cls-1{fill:#006fba;}.cls-2{fill:none;}</style></defs><path class="cls-1" d="M70.64,141.58c-21.76,0-43.52-.08-65.28.08-3.92,0-5.38-.77-5.36-5.1Q.26,70.85,0,5.11C0,1.32.82,0,4.92,0q65.94.22,131.9,0c4.1,0,4.9,1.32,4.89,5.11q-.19,65.73,0,131.46c0,4.35-1.45,5.12-5.36,5.09C114.46,141.5,92.55,141.58,70.64,141.58Zm61-71.06C133,41.31,108.21,9.58,70.92,9.31,37.19,9.07,9.43,36.84,9.39,70.49c0,33.48,27.51,60.76,61,61.14C105.84,132,133,101.24,131.6,70.52Z"/><path class="cls-2" d="M131.6,70.52C133,101.24,105.84,132,70.43,131.63,36.9,131.25,9.35,104,9.39,70.49c0-33.65,27.8-61.42,61.53-61.18C108.21,9.58,133,41.31,131.6,70.52Zm-75,9.27A130.75,130.75,0,0,0,28,107.27c8.56,12,30.83,22.24,41.83,19.25a119.7,119.7,0,0,1-3.4-37.43,5.05,5.05,0,0,0-1.86-3.47C62.23,83.63,59.6,82,56.56,79.79ZM84.84,61.42A10.23,10.23,0,0,0,87,60.08c8-7.67,16-15.42,24.1-23.07,2.39-2.26,2.17-4-.15-6.25a56.65,56.65,0,0,0-28.12-15.4c-3.5-.75-7.14-.82-11.42-1.28A125,125,0,0,1,75,53.4c-.05.73.84,1.75,1.56,2.28C79.15,57.6,81.85,59.37,84.84,61.42ZM34.53,27C21.36,39.16,14.65,52.65,14.36,68.29c13.2-.62,25.73-1.17,38.25-1.86a4.9,4.9,0,0,0,3.16-1.7c2-2.53,3.7-5.28,6.32-9.1ZM79.32,85.75l27.05,27.93c12.34-7.61,23.36-31.35,20.16-41.86-6.25,1-12.48,2.37-18.78,2.89s-12.77.16-19.15.35a4.18,4.18,0,0,0-2.8,1.53C83.8,79.13,82,81.85,79.32,85.75Zm3.38-15c0-6.91-4.7-11.78-11.56-11.89C63.76,58.71,59,63.22,58.88,70.38S63.65,82.6,70.59,82.65A11.61,11.61,0,0,0,82.7,70.72Z"/><path class="cls-1" d="M56.56,79.79c3,2.17,5.67,3.84,8,5.83a5.05,5.05,0,0,1,1.86,3.47,119.7,119.7,0,0,0,3.4,37.43c-11,3-33.27-7.23-41.83-19.25A130.75,130.75,0,0,1,56.56,79.79Z"/><path class="cls-1" d="M84.84,61.42c-3-2.05-5.69-3.82-8.27-5.74C75.85,55.15,75,54.13,75,53.4a125,125,0,0,0-3.6-39.32c4.28.46,7.92.53,11.42,1.28A56.65,56.65,0,0,1,111,30.76c2.32,2.25,2.54,4,.15,6.25-8.07,7.65-16,15.4-24.1,23.07A10.23,10.23,0,0,1,84.84,61.42Z"/><path class="cls-1" d="M34.53,27,62.09,55.63c-2.62,3.82-4.33,6.57-6.32,9.1a4.9,4.9,0,0,1-3.16,1.7c-12.52.69-25,1.24-38.25,1.86C14.65,52.65,21.36,39.16,34.53,27Z"/><path class="cls-1" d="M79.32,85.75c2.72-3.9,4.48-6.62,6.48-9.16a4.18,4.18,0,0,1,2.8-1.53c6.38-.19,12.8.18,19.15-.35s12.53-1.89,18.78-2.89c3.2,10.51-7.82,34.25-20.16,41.86Z"/><path class="cls-1" d="M82.7,70.72A11.61,11.61,0,0,1,70.59,82.65c-6.94-.05-11.81-5.15-11.71-12.27s4.88-11.67,12.26-11.55C78,58.94,82.74,63.81,82.7,70.72Z"/></svg>